HIERARCHY
ROOT Hips
{
  OFFSET 5.80788e-005 67.184 3.4734
  CHANNELS 6 Xposition Yposition Zposition Zrotation Xrotation Yrotation
  JOINT Chest
  {
    OFFSET 0 8.7983 -4.7612
    CHANNELS 3 Zrotation Xrotation Yrotation
    JOINT Chest2
    {
      OFFSET 0 8.0291 0.4195
      CHANNELS 3 Zrotation Xrotation Yrotation
      JOINT Chest3
      {
        OFFSET 0 9.9351 -2.2114
        CHANNELS 3 Zrotation Xrotation Yrotation
        JOINT Neck
        {
          OFFSET 0 22.3885 -0.4656
          CHANNELS 3 Zrotation Xrotation Yrotation
          JOINT Head
          {
            OFFSET -0.0001 12.643 3.4389
            CHANNELS 3 Zrotation Xrotation Yrotation
            End Site
            {
              OFFSET 0.0001 17.6655 0.5274
            }
          }
        }
        JOINT LeftCollar
        {
          OFFSET 2.2603 21.606 7.4023
          CHANNELS 3 Zrotation Xrotation Yrotation
          JOINT LeftShoulder
          {
            OFFSET 13.5163 -1.1332 -5.0146
            CHANNELS 3 Zrotation Xrotation Yrotation
            JOINT LeftElbow
            {
              OFFSET -0.0995 -28.05 -0.2431
              CHANNELS 3 Zrotation Xrotation Yrotation
              JOINT LeftWrist
              {
                OFFSET 0.0679 -23.3996 -0.1402
                CHANNELS 3 Zrotation Xrotation Yrotation
                JOINT LeftFinger1
                {
                  OFFSET 0.7932 -9.069 2.5189
                  CHANNELS 3 Zrotation Xrotation Yrotation
                  JOINT LeftFinger11
                  {
                    OFFSET -0.8272 -3.3923 0.5977
                    CHANNELS 3 Zrotation Xrotation Yrotation
                    JOINT LeftFinger12
                    {
                      OFFSET -0.5649 -2.3158 0.4082
                      CHANNELS 3 Zrotation Xrotation Yrotation
                      End Site
                      {
                        OFFSET -0.4919 -1.6479 0.2673
                      }
                    }
                  }
                }
                JOINT LeftFinger2
                {
                  OFFSET 0.9159 -9.2044 0.2193
                  CHANNELS 3 Zrotation Xrotation Yrotation
                  JOINT LeftFinger21
                  {
                    OFFSET 0.0117 -4.1944 -0.0248
                    CHANNELS 3 Zrotation Xrotation Yrotation
                    JOINT LeftFinger22
                    {
                      OFFSET 0.0071 -2.3249 -0.0142
                      CHANNELS 3 Zrotation Xrotation Yrotation
                      End Site
                      {
                        OFFSET -0.1475 -2.0882 0.0028
                      }
                    }
                  }
                }
                JOINT LeftFinger3
                {
                  OFFSET 0.6113 -8.7231 -2.0637
                  CHANNELS 3 Zrotation Xrotation Yrotation
                  JOINT LeftFinger31
                  {
                    OFFSET -0.1927 -3.8059 -0.2383
                    CHANNELS 3 Zrotation Xrotation Yrotation
                    JOINT LeftFinger32
                    {
                      OFFSET -0.1091 -2.1688 -0.1362
                      CHANNELS 3 Zrotation Xrotation Yrotation
                      End Site
                      {
                        OFFSET -0.2358 -1.9176 -0.0906
                      }
                    }
                  }
                }
                JOINT LeftFinger4
                {
                  OFFSET -0.6151 -8.0947 -3.5641
                  CHANNELS 3 Zrotation Xrotation Yrotation
                  JOINT LeftFinger41
                  {
                    OFFSET -0.4882 -2.341 -0.6462
                    CHANNELS 3 Zrotation Xrotation Yrotation
                    JOINT LeftFinger42
                    {
                      OFFSET -0.3575 -1.7167 -0.4742
                      CHANNELS 3 Zrotation Xrotation Yrotation
                      End Site
                      {
                        OFFSET -0.4187 -1.5237 -0.3496
                      }
                    }
                  }
                }
                JOINT LeftFinger0
                {
                  OFFSET -1.42 -1.8761 1.4223
                  CHANNELS 3 Zrotation Xrotation Yrotation
                  JOINT LeftFinger01
                  {
                    OFFSET -1.1471 -3.4929 2.6334
                    CHANNELS 3 Zrotation Xrotation Yrotation
                    JOINT LeftFinger02
                    {
                      OFFSET -0.823 -2.3 1.6571
                      CHANNELS 3 Zrotation Xrotation Yrotation
                      End Site
                      {
                        OFFSET -0.5822 -1.6914 1.1582
                      }
                    }
                  }
                }
              }
            }
          }
        }
        JOINT RightCollar
        {
          OFFSET -2.2603 21.606 7.4023
          CHANNELS 3 Zrotation Xrotation Yrotation
          JOINT RightShoulder
          {
            OFFSET -13.5187 -1.1334 -5.0155
            CHANNELS 3 Zrotation Xrotation Yrotation
            JOINT RightElbow
            {
              OFFSET 0.0994 -28.0499 -0.2431
              CHANNELS 3 Zrotation Xrotation Yrotation
              JOINT RightWrist
              {
                OFFSET -0.0679 -23.3996 -0.1402
                CHANNELS 3 Zrotation Xrotation Yrotation
                JOINT RightFinger1
                {
                  OFFSET -0.7932 -9.0691 2.5189
                  CHANNELS 3 Zrotation Xrotation Yrotation
                  JOINT RightFinger11
                  {
                    OFFSET 0.8272 -3.3923 0.5977
                    CHANNELS 3 Zrotation Xrotation Yrotation
                    JOINT RightFinger12
                    {
                      OFFSET 0.565 -2.3158 0.4082
                      CHANNELS 3 Zrotation Xrotation Yrotation
                      End Site
                      {
                        OFFSET 0.4919 -1.6479 0.2673
                      }
                    }
                  }
                }
                JOINT RightFinger2
                {
                  OFFSET -0.916 -9.2044 0.2193
                  CHANNELS 3 Zrotation Xrotation Yrotation
                  JOINT RightFinger21
                  {
                    OFFSET -0.0117 -4.1944 -0.0248
                    CHANNELS 3 Zrotation Xrotation Yrotation
                    JOINT RightFinger22
                    {
                      OFFSET -0.0071 -2.3249 -0.0142
                      CHANNELS 3 Zrotation Xrotation Yrotation
                      End Site
                      {
                        OFFSET 0.1475 -2.0882 0.0028
                      }
                    }
                  }
                }
                JOINT RightFinger3
                {
                  OFFSET -0.6113 -8.7231 -2.0637
                  CHANNELS 3 Zrotation Xrotation Yrotation
                  JOINT RightFinger31
                  {
                    OFFSET 0.1927 -3.8059 -0.2383
                    CHANNELS 3 Zrotation Xrotation Yrotation
                    JOINT RightFinger32
                    {
                      OFFSET 0.1091 -2.1688 -0.1362
                      CHANNELS 3 Zrotation Xrotation Yrotation
                      End Site
                      {
                        OFFSET 0.2358 -1.9176 -0.0906
                      }
                    }
                  }
                }
                JOINT RightFinger4
                {
                  OFFSET 0.6151 -8.0947 -3.564
                  CHANNELS 3 Zrotation Xrotation Yrotation
                  JOINT RightFinger41
                  {
                    OFFSET 0.4882 -2.341 -0.6462
                    CHANNELS 3 Zrotation Xrotation Yrotation
                    JOINT RightFinger42
                    {
                      OFFSET 0.3574 -1.7166 -0.4742
                      CHANNELS 3 Zrotation Xrotation Yrotation
                      End Site
                      {
                        OFFSET 0.4187 -1.5237 -0.3496
                      }
                    }
                  }
                }
                JOINT RightFinger0
                {
                  OFFSET 1.4199 -1.8761 1.4221
                  CHANNELS 3 Zrotation Xrotation Yrotation
                  JOINT RightFinger01
                  {
                    OFFSET 1.1472 -3.4929 2.6336
                    CHANNELS 3 Zrotation Xrotation Yrotation
                    JOINT RightFinger02
                    {
                      OFFSET 0.8229 -2.3 1.6571
                      CHANNELS 3 Zrotation Xrotation Yrotation
                      End Site
                      {
                        OFFSET 0.5822 -1.6914 1.1582
                      }
                    }
                  }
                }
              }
            }
          }
        }
      }
    }
  }
  JOINT RightHip
  {
    OFFSET -9.412 3.9771 -0.7758
    CHANNELS 3 Zrotation Xrotation Yrotation
    JOINT RightKnee
    {
      OFFSET -0.7531 -40.938 0
      CHANNELS 3 Zrotation Xrotation Yrotation
      JOINT RightAnkle
      {
        OFFSET 0 -40.1986 0
        CHANNELS 3 Zrotation Xrotation Yrotation
        JOINT RightToe
        {
          OFFSET 0 -4.4182 9.239
          CHANNELS 3 Zrotation Xrotation Yrotation
          End Site
          {
            OFFSET 0 0 6.1981
          }
        }
      }
    }
  }
  JOINT LeftHip
  {
    OFFSET 9.4119 3.9773 -0.7758
    CHANNELS 3 Zrotation Xrotation Yrotation
    JOINT LeftKnee
    {
      OFFSET 0.7532 -40.9383 0
      CHANNELS 3 Zrotation Xrotation Yrotation
      JOINT LeftAnkle
      {
        OFFSET 0 -40.1986 0
        CHANNELS 3 Zrotation Xrotation Yrotation
        JOINT LeftToe
        {
          OFFSET 0 -4.4182 9.239
          CHANNELS 3 Zrotation Xrotation Yrotation
          End Site
          {
            OFFSET 0 0 6.1981
          }
        }
      }
    }
  }
}
MOTION
Frames:	4
Frame Time:	0.0333333
39.8408 4.20861 27.0845 -2.07828e-009 70.997 9.61364e-008 -0.323007 3.8084 -0.0458667 -0.645097 7.61704 -0.0703935 -0.645098 7.61704 -0.0703937 -3.33834e-006 -28.7569 -5.99821e-007 -0.0603632 -22.9126 -0.0248066 -6.20202 -5.52591 -9.01879 38.1656 -55.0592 43.4452 -162.624 -57.0654 154.779 -6.4139 4.042 -4.79098 5.96354e-016 -2.38542e-015 2.85753e-015 -6.26606e-006 7.7174e-006 7.52714e-006 -3.97569e-016 -7.95139e-016 -3.72721e-016 5.96354e-016 -2.38542e-015 2.85753e-015 -0.0128014 0.00232894 8.8422e-005 -1.95695e-032 3.97569e-016 2.82026e-015 5.96354e-016 -2.38542e-015 2.85753e-015 -0.0160615 0.0029968 0.000863707 -3.97569e-016 3.97569e-016 3.5657e-015 5.96354e-016 -2.38542e-015 2.85753e-015 -0.0125627 0.00311894 0.00282856 -1.84487e-032 -3.97569e-016 -2.65874e-015 5.96354e-016 -2.38542e-015 2.85753e-015 -6.26606e-006 7.7174e-006 7.52714e-006 -3.97569e-016 -7.95139e-016 -3.72721e-016 5.5269 -5.40693 3.31729 -30.8304 -56.7586 -35.5187 166.972 -56.5749 -151.635 6.42918 3.89252 4.91739 1.19271e-015 1.59028e-015 1.2921e-015 -1.70205e-006 9.18664e-009 1.25098e-007 8.51024e-006 8.33839e-006 -6.25492e-007 1.19271e-015 1.59028e-015 1.2921e-015 0.012956 0.00231625 -7.48561e-005 7.95139e-016 0 -1.61513e-015 1.19271e-015 1.59028e-015 1.2921e-015 0.0163065 0.00302895 -0.000866861 7.95139e-016 -1.59028e-015 -2.03754e-015 1.19271e-015 1.59028e-015 1.2921e-015 0.0145521 0.00365887 -0.00324904 3.97569e-016 -7.95139e-016 -2.68359e-015 1.19271e-015 1.59028e-015 1.2921e-015 -1.70205e-006 9.18664e-009 1.25098e-007 8.51024e-006 8.33839e-006 -6.25492e-007 -101.006 -32.4693 -86.5642 176.901 43.3174 177.837 -6.65608 10.2006 -3.35332 -9.92408e-006 5.36555e-006 -3.90038e-006 101.002 -32.4747 86.5605 -176.903 43.3171 -177.84 6.65379 10.1993 3.35006 -2.8869e-006 1.21286e-005 9.34953e-006 
39.8408 4.20861 27.1186 -5.20131e-008 70.997 8.81104e-008 -0.323006 3.8084 -0.0458715 -0.645095 7.61704 -0.0704031 -0.645096 7.61705 -0.0704033 -3.24541e-006 -28.5067 -5.11519e-007 -0.060349 -22.8826 -0.0248015 -6.30534 -5.24777 -9.2072 38.3234 -55.0085 43.5896 -162.624 -57.0655 154.779 -6.42161 3.90402 -4.92498 1.98785e-016 0 8.64713e-015 1.70016e-006 2.70809e-006 -1.78027e-006 2.83499e-006 -1.04013e-005 -7.35378e-006 1.98785e-016 0 8.64713e-015 -0.0127978 0.00231251 8.00023e-005 3.7924e-006 2.56099e-006 4.05434e-006 1.98785e-016 0 8.64713e-015 -0.0160401 0.00299967 0.000842116 3.73649e-009 -1.71122e-006 1.69535e-006 1.98785e-016 0 8.64713e-015 -0.012549 0.00311387 0.00281036 3.4057e-006 2.6129e-006 -1.8652e-006 1.98785e-016 0 8.64713e-015 1.70016e-006 2.70809e-006 -1.78027e-006 2.83499e-006 -1.04013e-005 -7.35378e-006 5.62057 -5.12621 3.51756 -31.008 -56.7225 -35.6855 166.972 -56.5749 -151.635 6.42761 3.75521 5.05397 7.95139e-016 7.95139e-016 1.98785e-015 -5.72428e-032 1.59028e-015 2.06239e-015 -1.17028e-008 -2.53175e-006 -1.62977e-006 7.95139e-016 7.95139e-016 1.98785e-015 0.0129332 0.0023097 -9.00592e-005 7.95139e-016 1.59028e-015 -3.72721e-016 7.95139e-016 7.95139e-016 1.98785e-015 0.0163239 0.00303657 -0.00088106 -3.89665e-032 7.95139e-016 2.80783e-015 7.95139e-016 7.95139e-016 1.98785e-015 0.0145215 0.0036663 -0.00325738 -2.3173e-031 -2.38542e-015 -5.56597e-015 7.95139e-016 7.95139e-016 1.98785e-015 -5.72428e-032 1.59028e-015 2.06239e-015 -1.17028e-008 -2.53175e-006 -1.62977e-006 -101.006 -32.4692 -86.5642 176.901 43.3173 177.837 -6.65607 10.2006 -3.35335 -3.11985e-005 4.10875e-006 1.81452e-005 101.002 -32.4747 86.5605 -176.903 43.3171 -177.84 6.65383 10.1993 3.35009 -3.15787e-007 -6.13856e-006 -7.98734e-006 
39.8408 4.20861 27.1527 2.38301e-007 70.9971 -2.47628e-007 -0.323006 3.8084 -0.0458754 -0.645095 7.61704 -0.0704108 -0.645096 7.61704 -0.0704113 -3.38109e-006 -28.2565 -6.07757e-007 -0.0603353 -22.8526 -0.0247961 -6.40768 -4.96931 -9.39502 38.4807 -54.9577 43.7334 -162.624 -57.0655 154.779 -6.42966 3.76608 -5.05895 3.97569e-016 1.19271e-015 1.90088e-015 -1.98785e-016 3.97569e-016 -1.31695e-015 -1.27589e-032 3.97569e-016 1.83876e-015 3.97569e-016 1.19271e-015 1.90088e-015 -0.0128397 0.00232614 7.95323e-005 -3.97569e-016 -7.95139e-016 5.28022e-015 3.97569e-016 1.19271e-015 1.90088e-015 -0.0160516 0.00299019 0.000849962 -3.01506e-006 7.0077e-006 6.08753e-006 3.97569e-016 1.19271e-015 1.90088e-015 -0.0126426 0.00312127 0.00282946 -2.41198e-006 1.88546e-005 1.15753e-005 3.97569e-016 1.19271e-015 1.90088e-015 -1.98785e-016 3.97569e-016 -1.31695e-015 -1.27589e-032 3.97569e-016 1.83876e-015 5.71321 -4.84517 3.71728 -31.1851 -56.6862 -35.8519 166.972 -56.5748 -151.635 6.4263 3.6179 5.19057 7.95139e-016 7.95139e-016 -2.41026e-015 1.59028e-015 1.59028e-015 3.85145e-015 -5.44842e-032 7.95139e-016 3.926e-015 7.95139e-016 7.95139e-016 -2.41026e-015 0.0129448 0.0023242 -8.68743e-005 7.95139e-016 7.95139e-016 8.97016e-015 7.95139e-016 7.95139e-016 -2.41026e-015 0.016323 0.00302878 -0.00087305 7.95139e-016 -1.59028e-015 -4.07509e-015 7.95139e-016 7.95139e-016 -2.41026e-015 0.0145658 0.00368142 -0.00326487 2.29661e-031 -1.59028e-015 8.27441e-015 7.95139e-016 7.95139e-016 -2.41026e-015 1.59028e-015 1.59028e-015 3.85145e-015 -5.44842e-032 7.95139e-016 3.926e-015 -101.006 -32.4692 -86.5642 176.901 43.3174 177.837 -6.65605 10.2006 -3.35334 7.46608e-007 1.26914e-005 -1.28219e-006 101.002 -32.4747 86.5605 -176.903 43.317 -177.84 6.65382 10.1993 3.35001 4.96962e-016 -3.18055e-015 -2.08724e-015 
39.8408 4.20861 27.1868 1.852e-007 70.9971 -1.39395e-007 -0.323007 3.8084 -0.0458784 -0.645095 7.61704 -0.070417 -0.645097 7.61704 -0.0704174 -3.38344e-006 -28.0063 -6.79763e-007 -0.0603215 -22.8226 -0.02479 -6.50907 -4.69055 -9.58225 38.6375 -54.9067 43.8768 -162.624 -57.0655 154.779 -6.43808 3.62814 -5.19293 2.75362e-006 1.47506e-005 9.62884e-006 -5.94843e-033 -3.97569e-016 -8.57259e-016 2.77668e-006 -1.46266e-005 -5.65476e-006 2.75362e-006 1.47506e-005 9.62884e-006 -0.0128056 0.0023129 9.32803e-005 1.72059e-006 2.57414e-006 -1.77879e-006 2.75362e-006 1.47506e-005 9.62884e-006 -0.0160728 0.00299429 0.000865688 6.41636e-006 -4.18049e-006 -6.25231e-006 2.75362e-006 1.47506e-005 9.62884e-006 -0.0126058 0.00309975 0.00282995 -1.06997e-006 1.28242e-005 5.57086e-006 2.75362e-006 1.47506e-005 9.62884e-006 -5.94843e-033 -3.97569e-016 -8.57259e-016 2.77668e-006 -1.46266e-005 -5.65476e-006 5.80483 -4.56381 3.91644 -31.362 -56.6496 -36.018 166.972 -56.5748 -151.635 6.42536 3.48058 5.32709 -1.96557e-032 -7.95139e-016 -1.41634e-015 3.97569e-016 -7.95139e-016 1.68967e-015 -3.97569e-016 0 1.71452e-015 -1.96557e-032 -7.95139e-016 -1.41634e-015 0.0129446 0.00231435 -8.30016e-005 -7.95139e-016 -3.97569e-015 9.93923e-017 -1.96557e-032 -7.95139e-016 -1.41634e-015 0.0163217 0.00303331 -0.000874514 7.95139e-016 1.59028e-015 -8.19987e-016 -1.96557e-032 -7.95139e-016 -1.41634e-015 0.0145788 0.00366938 -0.003271 -7.44847e-032 2.38542e-015 1.78906e-015 -1.96557e-032 -7.95139e-016 -1.41634e-015 3.97569e-016 -7.95139e-016 1.68967e-015 -3.97569e-016 0 1.71452e-015 -101.006 -32.4692 -86.5642 176.901 43.3173 177.837 -6.65606 10.2006 -3.35334 -1.49855e-005 1.41386e-005 -1.22809e-007 101.002 -32.4747 86.5606 -176.903 43.317 -177.84 6.65379 10.1993 3.35007 6.1981e-006 -6.59066e-006 -8.57279e-006 
